<?xml version="1.0" standalone="no"?>
<!DOCTYPE svg PUBLIC "-//W3C//DTD SVG 20010904//EN"
 "http://www.w3.org/TR/2001/REC-SVG-20010904/DTD/svg10.dtd">
<svg version="1.0" xmlns="http://www.w3.org/2000/svg"
 width="22.000000pt" height="22.000000pt" viewBox="0 0 22.000000 22.000000"
 preserveAspectRatio="xMidYMid meet">
<metadata>
Created by potrace 1.13, written by Peter Selinger 2001-2015
</metadata>
<g transform="translate(0.000000,22.000000) scale(0.100000,-0.100000)"
fill="#000000" stroke="none">
<path d="M190 211 c0 -5 -12 -17 -27 -26 -23 -15 -33 -16 -79 -6 -35 8 -59 9
-71 3 -15 -9 -12 -13 18 -31 19 -11 37 -21 42 -21 18 0 4 -31 -18 -40 -30 -11
-31 -21 -7 -43 25 -23 42 -21 42 3 0 21 31 41 37 24 2 -5 13 -24 24 -43 18
-30 22 -33 31 -18 6 12 5 36 -3 71 -10 46 -9 56 6 79 9 15 21 27 26 27 5 0 9
7 9 15 0 8 -7 15 -15 15 -8 0 -15 -4 -15 -9z"/>
</g>
</svg>
