<?xml version="1.0" standalone="no"?>
<!DOCTYPE svg PUBLIC "-//W3C//DTD SVG 20010904//EN"
 "http://www.w3.org/TR/2001/REC-SVG-20010904/DTD/svg10.dtd">
<svg version="1.0" xmlns="http://www.w3.org/2000/svg"
 width="12.000000pt" height="12.000000pt" viewBox="0 0 12.000000 12.000000"
 preserveAspectRatio="xMidYMid meet">
<metadata>
Created by potrace 1.10, written by Peter Selinger 2001-2011
</metadata>
<g transform="translate(0.000000,12.000000) scale(0.100000,-0.100000)"
fill="#ea361b" stroke="none">
<path d="M88 104 c-13 -14 -22 -15 -47 -6 -38 14 -52 -3 -17 -20 31 -13 34
-28 6 -28 -23 0 -26 -10 -8 -28 17 -17 25 -15 32 11 6 22 7 22 22 -6 19 -35
36 -26 23 12 -8 23 -7 35 6 55 19 29 8 35 -17 10z"/>
</g>
</svg>
